<?xml version="1.0" ?>
<svg xmlns="http://www.w3.org/2000/svg" version="1.1" width="1200" height="630">
	<path d="M 822,234 L 821,235 L 811,235 L 810,236 L 806,236 L 805,237 L 803,237 L 802,238 L 800,238 L 799,239 L 797,239 L 796,240 L 794,240 L 793,241 L 791,241 L 790,242 L 789,242 L 787,244 L 786,244 L 785,245 L 784,245 L 783,246 L 782,246 L 781,247 L 780,247 L 777,250 L 776,250 L 772,254 L 771,254 L 763,262 L 763,263 L 760,266 L 760,267 L 757,270 L 757,271 L 756,272 L 756,273 L 754,275 L 754,276 L 753,277 L 753,278 L 752,279 L 752,280 L 751,281 L 751,282 L 750,283 L 750,285 L 749,286 L 749,288 L 748,289 L 748,290 L 747,291 L 747,294 L 746,295 L 746,297 L 745,298 L 745,304 L 744,305 L 744,324 L 745,325 L 745,331 L 746,332 L 746,334 L 747,335 L 747,338 L 748,339 L 748,340 L 749,341 L 749,343 L 750,344 L 750,346 L 751,347 L 751,348 L 752,349 L 752,350 L 753,351 L 753,352 L 754,353 L 754,354 L 756,356 L 756,357 L 757,358 L 757,359 L 760,362 L 760,363 L 763,366 L 763,367 L 771,375 L 772,375 L 776,379 L 777,379 L 780,382 L 781,382 L 782,383 L 783,383 L 784,384 L 785,384 L 786,385 L 787,385 L 789,387 L 790,387 L 791,388 L 793,388 L 794,389 L 796,389 L 797,390 L 799,390 L 800,391 L 802,391 L 803,392 L 805,392 L 806,393 L 810,393 L 811,394 L 821,394 L 822,395 L 825,395 L 826,394 L 836,394 L 837,393 L 842,393 L 843,392 L 845,392 L 846,391 L 848,391 L 849,390 L 851,390 L 852,389 L 854,389 L 855,388 L 856,388 L 857,387 L 859,387 L 861,385 L 862,385 L 863,384 L 864,384 L 865,383 L 866,383 L 868,381 L 869,381 L 872,378 L 873,378 L 877,374 L 878,374 L 884,368 L 884,367 L 888,363 L 888,362 L 891,359 L 891,358 L 892,357 L 892,356 L 893,355 L 893,354 L 895,352 L 895,351 L 896,350 L 896,349 L 897,348 L 897,347 L 898,346 L 898,344 L 899,343 L 899,341 L 900,340 L 900,338 L 901,337 L 901,335 L 902,334 L 902,331 L 903,330 L 903,324 L 904,323 L 904,306 L 903,305 L 903,299 L 902,298 L 902,295 L 901,294 L 901,292 L 900,291 L 900,289 L 899,288 L 899,286 L 898,285 L 898,283 L 897,282 L 897,281 L 896,280 L 896,279 L 895,278 L 895,277 L 893,275 L 893,274 L 892,273 L 892,272 L 891,271 L 891,270 L 888,267 L 888,266 L 884,262 L 884,261 L 878,255 L 877,255 L 873,251 L 872,251 L 869,248 L 868,248 L 866,246 L 865,246 L 864,245 L 863,245 L 862,244 L 861,244 L 859,242 L 857,242 L 856,241 L 855,241 L 854,240 L 852,240 L 851,239 L 849,239 L 848,238 L 846,238 L 845,237 L 843,237 L 842,236 L 837,236 L 836,235 L 826,235 L 825,234 Z" fill="black"/>
	<path d="M 602,234 L 601,235 L 591,235 L 590,236 L 586,236 L 585,237 L 582,237 L 581,238 L 579,238 L 578,239 L 576,239 L 575,240 L 573,240 L 572,241 L 571,241 L 570,242 L 569,242 L 568,243 L 567,243 L 566,244 L 565,244 L 564,245 L 563,245 L 561,247 L 560,247 L 559,248 L 558,248 L 554,252 L 553,252 L 540,265 L 540,266 L 538,268 L 538,269 L 536,271 L 536,272 L 534,274 L 534,275 L 533,276 L 533,277 L 532,278 L 532,279 L 531,280 L 531,281 L 530,282 L 530,283 L 529,284 L 529,286 L 528,287 L 528,288 L 527,289 L 527,292 L 526,293 L 526,296 L 525,297 L 525,302 L 524,303 L 524,313 L 523,314 L 523,315 L 524,316 L 524,326 L 525,327 L 525,332 L 526,333 L 526,336 L 527,337 L 527,340 L 528,341 L 528,342 L 529,343 L 529,345 L 530,346 L 530,347 L 531,348 L 531,349 L 532,350 L 532,351 L 533,352 L 533,353 L 534,354 L 534,355 L 536,357 L 536,358 L 538,360 L 538,361 L 540,363 L 540,364 L 553,377 L 554,377 L 558,381 L 559,381 L 560,382 L 561,382 L 563,384 L 564,384 L 565,385 L 566,385 L 567,386 L 568,386 L 569,387 L 570,387 L 571,388 L 572,388 L 573,389 L 575,389 L 576,390 L 578,390 L 579,391 L 581,391 L 582,392 L 585,392 L 586,393 L 590,393 L 591,394 L 601,394 L 602,395 L 605,395 L 606,394 L 616,394 L 617,393 L 621,393 L 622,392 L 624,392 L 625,391 L 628,391 L 629,390 L 631,390 L 632,389 L 634,389 L 635,388 L 636,388 L 637,387 L 638,387 L 639,386 L 640,386 L 641,385 L 642,385 L 644,383 L 645,383 L 646,382 L 647,382 L 649,380 L 650,380 L 653,377 L 654,377 L 666,365 L 666,364 L 669,361 L 669,360 L 671,358 L 671,357 L 673,355 L 673,354 L 674,353 L 674,352 L 675,351 L 675,350 L 676,349 L 676,348 L 677,347 L 677,346 L 678,345 L 678,343 L 679,342 L 679,340 L 680,339 L 680,336 L 681,335 L 681,332 L 682,331 L 682,327 L 683,326 L 683,317 L 684,316 L 684,313 L 683,312 L 683,303 L 682,302 L 682,298 L 681,297 L 681,294 L 680,293 L 680,290 L 679,289 L 679,287 L 678,286 L 678,284 L 677,283 L 677,282 L 676,281 L 676,280 L 675,279 L 675,278 L 674,277 L 674,276 L 673,275 L 673,274 L 671,272 L 671,271 L 669,269 L 669,268 L 666,265 L 666,264 L 654,252 L 653,252 L 650,249 L 649,249 L 647,247 L 646,247 L 645,246 L 644,246 L 642,244 L 641,244 L 640,243 L 639,243 L 638,242 L 637,242 L 636,241 L 635,241 L 634,240 L 632,240 L 631,239 L 629,239 L 628,238 L 625,238 L 624,237 L 622,237 L 621,236 L 617,236 L 616,235 L 606,235 L 605,234 Z" fill="black"/>
	<path d="M 374,234 L 373,235 L 363,235 L 362,236 L 357,236 L 356,237 L 354,237 L 353,238 L 351,238 L 350,239 L 348,239 L 347,240 L 345,240 L 344,241 L 343,241 L 342,242 L 340,242 L 338,244 L 337,244 L 336,245 L 335,245 L 334,246 L 333,246 L 331,248 L 330,248 L 327,251 L 326,251 L 322,255 L 321,255 L 315,261 L 315,262 L 311,266 L 311,267 L 308,270 L 308,271 L 307,272 L 307,273 L 306,274 L 306,275 L 304,277 L 304,278 L 303,279 L 303,280 L 302,281 L 302,282 L 301,283 L 301,285 L 300,286 L 300,288 L 299,289 L 299,291 L 298,292 L 298,294 L 297,295 L 297,298 L 296,299 L 296,305 L 295,306 L 295,323 L 296,324 L 296,330 L 297,331 L 297,334 L 298,335 L 298,337 L 299,338 L 299,340 L 300,341 L 300,343 L 301,344 L 301,346 L 302,347 L 302,348 L 303,349 L 303,350 L 304,351 L 304,352 L 306,354 L 306,355 L 307,356 L 307,357 L 308,358 L 308,359 L 311,362 L 311,363 L 315,367 L 315,368 L 321,374 L 322,374 L 326,378 L 327,378 L 330,381 L 331,381 L 333,383 L 334,383 L 335,384 L 336,384 L 337,385 L 338,385 L 340,387 L 342,387 L 343,388 L 344,388 L 345,389 L 347,389 L 348,390 L 350,390 L 351,391 L 353,391 L 354,392 L 356,392 L 357,393 L 362,393 L 363,394 L 373,394 L 374,395 L 377,395 L 378,394 L 388,394 L 389,393 L 393,393 L 394,392 L 396,392 L 397,391 L 399,391 L 400,390 L 402,390 L 403,389 L 405,389 L 406,388 L 408,388 L 409,387 L 410,387 L 411,386 L 412,386 L 414,384 L 415,384 L 416,383 L 417,383 L 418,382 L 419,382 L 422,379 L 423,379 L 427,375 L 428,375 L 436,367 L 436,366 L 439,363 L 439,362 L 442,359 L 442,358 L 443,357 L 443,356 L 445,354 L 445,353 L 446,352 L 446,351 L 447,350 L 447,349 L 448,348 L 448,347 L 449,346 L 449,344 L 450,343 L 450,342 L 451,341 L 451,339 L 452,338 L 452,335 L 453,334 L 453,332 L 454,331 L 454,325 L 455,324 L 455,305 L 454,304 L 454,298 L 453,297 L 453,295 L 452,294 L 452,291 L 451,290 L 451,288 L 450,287 L 450,286 L 449,285 L 449,283 L 448,282 L 448,281 L 447,280 L 447,279 L 446,278 L 446,277 L 445,276 L 445,275 L 443,273 L 443,272 L 442,271 L 442,270 L 439,267 L 439,266 L 436,263 L 436,262 L 428,254 L 427,254 L 423,250 L 422,250 L 419,247 L 418,247 L 417,246 L 416,246 L 415,245 L 414,245 L 412,243 L 411,243 L 410,242 L 409,242 L 408,241 L 406,241 L 405,240 L 403,240 L 402,239 L 400,239 L 399,238 L 397,238 L 396,237 L 394,237 L 393,236 L 389,236 L 388,235 L 378,235 L 377,234 Z" fill="black"/>
</svg>
